<?xml version="1.0" encoding="iso-8859-1"?>
<!-- Generator: Adobe Illustrator 21.1.0, SVG Export Plug-In . SVG Version: 6.00 Build 0)  -->
<svg version="1.1" id="Layer_1" xmlns="http://www.w3.org/2000/svg" xmlns:xlink="http://www.w3.org/1999/xlink" x="0px" y="0px"
	 viewBox="0 0 24 24" enable-background="new 0 0 24 24" xml:space="preserve">
<g>
	<path fill="#303C42" d="M22.5,6H17V3c0-1.1030273-0.8969727-2-2-2H9C7.8969727,1,7,1.8969727,7,3v3H1.5
		C1.2236328,6,1,6.2236328,1,6.5V21c0,1.1030273,0.8969727,2,2,2h18c1.1030273,0,2-0.8969727,2-2V6.5
		C23,6.2236328,22.7763672,6,22.5,6z M16,6H8V3c0-0.5512695,0.4487305-1,1-1h6c0.5512695,0,1,0.4487305,1,1V6z"/>
	<path fill="#FAFBFB" d="M7,7v1.5C7,8.7763672,7.2236328,9,7.5,9S8,8.7763672,8,8.5V7h8v1.5C16,8.7763672,16.2236328,9,16.5,9
		S17,8.7763672,17,8.5V7h5v11H2V7H7z"/>
	<path fill="#E6E6E5" d="M21,22H3c-0.5512695,0-1-0.4487305-1-1v-2h20v2C22,21.5512695,21.5512695,22,21,22z"/>
	<linearGradient id="SVGID_1_" gradientUnits="userSpaceOnUse" x1="0.2795949" y1="7.9336085" x2="24.1165123" y2="19.0489464">
		<stop  offset="0" style="stop-color:#FFFFFF;stop-opacity:0.2"/>
		<stop  offset="1" style="stop-color:#FFFFFF;stop-opacity:0"/>
	</linearGradient>
	<path fill="url(#SVGID_1_)" d="M22.5,6H17V3c0-1.1030273-0.8969727-2-2-2H9C7.8969727,1,7,1.8969727,7,3v3H1.5
		C1.2236328,6,1,6.2236328,1,6.5V21c0,1.1030273,0.8969727,2,2,2h18c1.1030273,0,2-0.8969727,2-2V6.5
		C23,6.2236328,22.7763672,6,22.5,6z M16,6H8V3c0-0.5512695,0.4487305-1,1-1h6c0.5512695,0,1,0.4487305,1,1V6z"/>
</g>
<g>
</g>
<g>
</g>
<g>
</g>
<g>
</g>
<g>
</g>
<g>
</g>
<g>
</g>
<g>
</g>
<g>
</g>
<g>
</g>
<g>
</g>
<g>
</g>
<g>
</g>
<g>
</g>
<g>
</g>
</svg>
