<svg aria-hidden="true" style="position: absolute; width: 0; height: 0; overflow: hidden;" version="1.1" xmlns="http://www.w3.org/2000/svg" xmlns:xlink="http://www.w3.org/1999/xlink">
<defs>
<symbol id="icon-apay" viewBox="0 0 77 32">
<path d="M14.888 4.796c0.853-1.067 1.432-2.5 1.279-3.964-1.249 0.062-2.773 0.824-3.655 1.892-0.792 0.914-1.493 2.407-1.31 3.81 1.402 0.122 2.802-0.701 3.686-1.738z"></path>
<path d="M16.152 6.808c-2.036-0.121-3.767 1.155-4.739 1.155s-2.461-1.094-4.072-1.065c-2.096 0.031-4.040 1.216-5.104 3.1-2.187 3.77-0.577 9.362 1.55 12.433 1.033 1.519 2.278 3.192 3.918 3.132 1.55-0.061 2.157-1.004 4.041-1.004 1.883 0 2.43 1.004 4.070 0.973 1.701-0.030 2.765-1.52 3.798-3.040 1.185-1.732 1.67-3.404 1.701-3.496-0.031-0.030-3.281-1.277-3.311-5.016-0.031-3.13 2.552-4.62 2.673-4.712-1.458-2.157-3.737-2.4-4.527-2.461z"></path>
<path d="M33.877 2.571c4.425 0 7.506 3.050 7.506 7.49 0 4.456-3.144 7.522-7.616 7.522h-4.899v7.791h-3.539v-22.803h8.549zM28.867 14.613h4.061c3.082 0 4.836-1.659 4.836-4.535s-1.754-4.519-4.82-4.519h-4.077v9.055z"></path>
<path d="M42.307 20.649c0-2.908 2.228-4.693 6.179-4.915l4.551-0.268v-1.28c0-1.849-1.248-2.955-3.334-2.955-1.976 0-3.208 0.948-3.508 2.434h-3.224c0.19-3.003 2.749-5.215 6.858-5.215 4.029 0 6.605 2.133 6.605 5.468v11.457h-3.271v-2.734h-0.079c-0.964 1.849-3.066 3.018-5.246 3.018-3.255 0-5.531-2.023-5.531-5.009zM53.037 19.148v-1.312l-4.093 0.253c-2.038 0.142-3.192 1.043-3.192 2.465 0 1.454 1.201 2.402 3.034 2.402 2.386 0 4.251-1.644 4.251-3.808z"></path>
<path d="M59.523 31.49v-2.765c0.252 0.063 0.821 0.063 1.106 0.063 1.58 0 2.434-0.664 2.955-2.37 0-0.032 0.3-1.011 0.3-1.027l-6.005-16.64h3.697l4.204 13.527h0.063l4.204-13.527h3.603l-6.227 17.493c-1.421 4.030-3.065 5.326-6.51 5.326-0.285 0-1.138-0.032-1.391-0.079z"></path>
</symbol>
<symbol id="icon-gpay" viewBox="0 0 76 32">
<path fill="#3c4043" style="fill: var(--color1, #3c4043)" d="M35.146 23.145h-2.614v-20.343h6.931c1.757 0 3.254 0.586 4.48 1.757 1.253 1.171 1.879 2.601 1.879 4.289 0 1.729-0.626 3.159-1.879 4.316-1.212 1.157-2.71 1.729-4.48 1.729h-4.316v8.252zM35.146 5.306v7.094h4.371c1.035 0 1.906-0.354 2.587-1.049 0.694-0.694 1.048-1.539 1.048-2.492 0-0.94-0.354-1.77-1.048-2.465-0.681-0.722-1.539-1.076-2.587-1.076h-4.371v-0.014z"></path>
<path fill="#3c4043" style="fill: var(--color1, #3c4043)" d="M52.657 8.765c1.933 0 3.459 0.517 4.575 1.552s1.675 2.451 1.675 4.248v8.579h-2.492v-1.934h-0.109c-1.076 1.593-2.519 2.383-4.316 2.383-1.539 0-2.819-0.449-3.854-1.362s-1.552-2.043-1.552-3.404c0-1.443 0.545-2.587 1.634-3.431 1.089-0.858 2.546-1.28 4.358-1.28 1.552 0 2.832 0.286 3.826 0.858v-0.599c0-0.912-0.354-1.675-1.076-2.315s-1.566-0.953-2.533-0.953c-1.457 0-2.614 0.613-3.459 1.852l-2.301-1.443c1.266-1.838 3.146-2.751 5.624-2.751zM49.28 18.869c0 0.681 0.286 1.253 0.872 1.702 0.572 0.449 1.253 0.681 2.029 0.681 1.103 0 2.084-0.409 2.941-1.226s1.293-1.77 1.293-2.873c-0.817-0.64-1.947-0.967-3.404-0.967-1.062 0-1.947 0.259-2.655 0.763-0.722 0.531-1.076 1.171-1.076 1.92z"></path>
<path fill="#3c4043" style="fill: var(--color1, #3c4043)" d="M73.124 9.215l-8.715 20.044h-2.696l3.241-7.013-5.746-13.031h2.846l4.14 9.995h0.054l4.031-9.995h2.846z"></path>
<path fill="#4285f4" style="fill: var(--color2, #4285f4)" d="M24.747 13.245c0-0.852-0.076-1.668-0.218-2.452h-10.959v4.494l6.311 0.001c-0.256 1.495-1.080 2.77-2.342 3.619v2.915h3.757c2.194-2.030 3.45-5.031 3.45-8.577z"></path>
<path fill="#34a853" style="fill: var(--color3, #34a853)" d="M17.541 18.907c-1.046 0.705-2.392 1.118-3.968 1.118-3.043 0-5.625-2.051-6.55-4.815h-3.875v3.007c1.92 3.81 5.866 6.424 10.425 6.424 3.151 0 5.798-1.036 7.725-2.82l-3.757-2.914z"></path>
<path fill="#fabb05" style="fill: var(--color4, #fabb05)" d="M6.659 12.98c0-0.776 0.129-1.526 0.365-2.232v-3.007h-3.875c-0.794 1.575-1.24 3.354-1.24 5.238s0.448 3.663 1.24 5.238l3.875-3.007c-0.236-0.705-0.365-1.456-0.365-2.232z"></path>
<path fill="#e94235" style="fill: var(--color5, #e94235)" d="M13.573 5.933c1.72 0 3.26 0.592 4.476 1.75l3.329-3.327c-2.022-1.883-4.658-3.039-7.805-3.039-4.558 0-8.505 2.614-10.425 6.424l3.875 3.007c0.925-2.764 3.506-4.815 6.55-4.815z"></path>
</symbol>
<symbol id="icon-mastercard" viewBox="0 0 53 32">
<path fill="#ff5f00" style="fill: var(--color6, #ff5f00)" d="M32.209 3.622h-13.447v24.165h13.447v-24.165z"></path>
<path fill="#eb001b" style="fill: var(--color7, #eb001b)" d="M19.616 15.704c-0.002-2.327 0.525-4.624 1.542-6.718s2.497-3.928 4.327-5.365c-2.267-1.782-4.99-2.89-7.857-3.198s-5.763 0.197-8.357 1.458c-2.594 1.26-4.78 3.225-6.31 5.669s-2.341 5.27-2.341 8.153c0 2.884 0.811 5.709 2.341 8.153s3.717 4.409 6.31 5.669c2.594 1.26 5.489 1.765 8.357 1.458s5.59-1.416 7.857-3.198c-1.831-1.437-3.31-3.271-4.327-5.365s-1.544-4.39-1.542-6.718z"></path>
<path fill="#f79e1b" style="fill: var(--color8, #f79e1b)" d="M50.35 15.704c0 2.884-0.811 5.709-2.341 8.153s-3.717 4.409-6.31 5.669c-2.594 1.26-5.49 1.765-8.357 1.458s-5.59-1.416-7.857-3.198c1.829-1.438 3.308-3.273 4.325-5.366s1.545-4.389 1.545-6.716-0.528-4.623-1.545-6.716c-1.017-2.093-2.495-3.928-4.325-5.366 2.267-1.782 4.99-2.89 7.857-3.198s5.763 0.197 8.357 1.458c2.593 1.26 4.78 3.225 6.31 5.669s2.341 5.27 2.341 8.153z"></path>
<path fill="#f79e1b" style="fill: var(--color8, #f79e1b)" d="M48.884 25.227v-0.495h0.199v-0.101h-0.508v0.101h0.2v0.495h0.109zM49.87 25.227v-0.596h-0.156l-0.179 0.41-0.179-0.41h-0.156v0.596h0.11v-0.45l0.168 0.388h0.114l0.168-0.389v0.451h0.11z"></path>
</symbol>
<symbol id="icon-paypal" viewBox="0 0 110 32">
<path fill="#253b80" style="fill: var(--color9, #253b80)" d="M15.028 0.446h-8.191c-0.561 0-1.037 0.407-1.125 0.96l-3.313 21.001c-0.066 0.415 0.255 0.788 0.676 0.788h3.91c0.561 0 1.037-0.407 1.125-0.962l0.893-5.664c0.086-0.555 0.564-0.962 1.123-0.962h2.593c5.396 0 8.509-2.611 9.323-7.784 0.366-2.263 0.015-4.042-1.045-5.287-1.164-1.367-3.229-2.091-5.97-2.091zM15.973 8.116c-0.448 2.939-2.694 2.939-4.865 2.939h-1.236l0.867-5.489c0.052-0.331 0.339-0.576 0.674-0.576h0.566c1.479 0 2.875 0 3.596 0.843 0.43 0.503 0.561 1.25 0.397 2.283zM39.513 8.022h-3.922c-0.334 0-0.623 0.244-0.675 0.576l-0.173 1.097-0.274-0.397c-0.849-1.232-2.742-1.644-4.632-1.644-4.335 0-8.037 3.282-8.758 7.887-0.375 2.297 0.158 4.493 1.461 6.024 1.195 1.408 2.906 1.995 4.941 1.995 3.492 0 5.429-2.246 5.429-2.246l-0.175 1.090c-0.066 0.417 0.255 0.79 0.673 0.79h3.533c0.562 0 1.036-0.407 1.125-0.962l2.12-13.423c0.067-0.413-0.253-0.788-0.672-0.788zM34.045 15.655c-0.379 2.241-2.157 3.745-4.425 3.745-1.139 0-2.050-0.365-2.634-1.057-0.58-0.687-0.8-1.666-0.616-2.755 0.354-2.222 2.162-3.775 4.396-3.775 1.113 0 2.019 0.37 2.616 1.068 0.597 0.705 0.835 1.69 0.663 2.775zM56.461 8.021h3.942c0.552 0 0.874 0.619 0.56 1.072l-13.11 18.921c-0.212 0.306-0.562 0.489-0.935 0.489h-3.937c-0.554 0-0.878-0.624-0.557-1.078l4.082-5.761-4.341-12.74c-0.15-0.443 0.177-0.903 0.648-0.903h3.873c0.503 0 0.947 0.33 1.093 0.812l2.304 7.694 5.436-8.007c0.213-0.313 0.566-0.499 0.942-0.499z"></path>
<path fill="#179bd7" style="fill: var(--color10, #179bd7)" d="M99.198 22.405l3.361-21.385c0.052-0.332 0.339-0.576 0.673-0.577h3.785c0.418 0 0.739 0.375 0.673 0.789l-3.315 21c-0.087 0.554-0.563 0.962-1.125 0.962h-3.38c-0.418 0-0.739-0.374-0.673-0.788zM73.454 0.444h-8.192c-0.559 0-1.036 0.407-1.124 0.96l-3.313 21.001c-0.066 0.415 0.255 0.788 0.673 0.788h4.203c0.391 0 0.725-0.285 0.786-0.673l0.94-5.953c0.086-0.555 0.564-0.962 1.124-0.962h2.592c5.397 0 8.51-2.611 9.324-7.784 0.367-2.263 0.014-4.042-1.045-5.287-1.163-1.367-3.227-2.091-5.968-2.091zM74.399 8.114c-0.447 2.939-2.693 2.939-4.865 2.939h-1.235l0.868-5.489c0.052-0.331 0.337-0.576 0.673-0.576h0.566c1.478 0 2.875 0 3.595 0.843 0.43 0.503 0.561 1.25 0.397 2.283zM97.936 8.020h-3.92c-0.337 0-0.623 0.244-0.673 0.576l-0.173 1.097-0.276-0.397c-0.849-1.232-2.741-1.644-4.631-1.644-4.335 0-8.035 3.282-8.756 7.887-0.374 2.297 0.157 4.493 1.46 6.024 1.198 1.408 2.906 1.995 4.94 1.995 3.492 0 5.429-2.246 5.429-2.246l-0.175 1.090c-0.066 0.417 0.255 0.79 0.676 0.79h3.531c0.559 0 1.036-0.407 1.124-0.962l2.121-13.423c0.065-0.413-0.256-0.788-0.677-0.788zM92.469 15.653c-0.376 2.241-2.157 3.745-4.426 3.745-1.137 0-2.049-0.365-2.634-1.057-0.58-0.687-0.798-1.666-0.615-2.755 0.355-2.222 2.162-3.774 4.395-3.774 1.114 0 2.019 0.37 2.616 1.068 0.6 0.706 0.837 1.69 0.663 2.775z"></path>
</symbol>
<symbol id="icon-visa" viewBox="0 0 93 32">
<path fill="#1434cb" style="fill: var(--color11, #1434cb)" d="M47.149 2.162l-5.964 27.878h-7.212l5.965-27.878h7.211zM77.491 20.163l3.797-10.469 2.185 10.469h-5.981zM85.537 30.040h6.67l-5.821-27.878h-6.157c-1.384 0-2.551 0.805-3.071 2.045l-10.82 25.833h7.573l1.503-4.163h9.252l0.868 4.163zM66.716 20.937c0.031-7.358-10.175-7.763-10.105-11.050 0.021-1.001 0.975-2.064 3.058-2.336 1.035-0.135 3.881-0.238 7.112 1.249l1.265-5.912c-1.736-0.63-3.969-1.236-6.747-1.236-7.128 0-12.145 3.79-12.187 9.216-0.045 4.013 3.581 6.252 6.314 7.587 2.809 1.367 3.754 2.242 3.741 3.464-0.019 1.872-2.241 2.696-4.315 2.728-3.626 0.057-5.731-0.979-7.408-1.76l-1.307 6.109c1.684 0.774 4.795 1.446 8.021 1.481 7.575 0 12.532-3.743 12.556-9.538zM36.844 2.162l-11.684 27.878h-7.625l-5.75-22.249c-0.349-1.37-0.653-1.872-1.714-2.449-1.732-0.94-4.595-1.823-7.114-2.37l0.172-0.81h12.271c1.564 0 2.971 1.041 3.326 2.842l3.037 16.133 7.505-18.975h7.577z"></path>
</symbol>
</defs>
</svg>
